PathFileType	4	(X/Y/Z)	c:/Users/goper/Files/vsCode/490R/osim_files/C17/C17_Fast_05.trc
DataRate	CameraRate	NumFrames	NumMarkers	Units                	OrigDataRate	OrigDataStartFrame	OrigNumFrames
250.00	250.00	8	36	mm	250.0	1297	2592
                Frame#	Time	LPSIS			LASIS			LTH1			LTH2			LTH3			LTH4			LLFE			LMFE			LSH1			LSH2			LSH3			LSH4			LLMAL			LMMAL			LCAL			LMTP5			LTOE			LMTP1			RPSIS			RASIS			RTH1			RTH2			RTH3			RTH4			RLFE			RMFE			RSH1			RSH2			RSH3			RSH4			RLMAL			RMMAL			RCAL			RMTP1			RTOE			RMTP5		
		X1	Y1	Z1	X2	Y2	Z2	X3	Y3	Z3	X4	Y4	Z4	X5	Y5	Z5	X6	Y6	Z6	X7	Y7	Z7	X8	Y8	Z8	X9	Y9	Z9	X10	Y10	Z10	X11	Y11	Z11	X12	Y12	Z12	X13	Y13	Z13	X14	Y14	Z14	X15	Y15	Z15	X16	Y16	Z16	X17	Y17	Z17	X18	Y18	Z18	X19	Y19	Z19	X20	Y20	Z20	X21	Y21	Z21	X22	Y22	Z22	X23	Y23	Z23	X24	Y24	Z24	X25	Y25	Z25	X26	Y26	Z26	X27	Y27	Z27	X28	Y28	Z28	X29	Y29	Z29	X30	Y30	Z30	X31	Y31	Z31	X32	Y32	Z32	X33	Y33	Z33	X34	Y34	Z34	X35	Y35	Z35	X36	Y36	Z36

1297	5.18400	-631.79584	1100.03174	382.40115	-826.37799	1042.90039	478.19901	-706.60004	721.69086	505.74734	-710.78278	678.92596	498.52350	-767.28546	725.43048	506.40933	-765.31995	681.37579	497.87076	-693.32031	511.87469	463.18829	-692.47137	518.08514	340.25900	-600.93842	288.43475	450.95599	-596.83606	246.04642	445.54242	-661.23090	276.57971	453.86957	-648.02057	235.50484	446.34412	-593.74445	102.34737	419.11426	-607.53619	113.95456	332.83160	-514.57544	68.07158	374.11371	-705.00635	43.27182	439.57907	-763.31915	61.00406	373.10260	-745.02728	43.37598	323.89987	-635.56512	1092.81970	308.78101	-807.41077	1054.71741	212.68559	-833.82874	765.75647	145.83363	-854.04785	721.50110	154.36397	-893.53729	782.48273	158.83124	-904.48199	736.42297	160.43997	-941.03094	519.37750	178.20221	-932.01257	531.66998	303.83368	-848.48175	329.42404	177.17514	-851.24908	285.09036	189.17075	-911.07520	325.14362	182.05190	-903.52612	279.73312	192.81566	-838.73553	114.44142	222.76404	-879.75867	127.28998	307.02588	-777.17969	76.87570	279.95554	-1011.00464	56.98812	281.67239	-1018.60962	84.76718	236.91336	-956.41437	52.93509	177.43074
1298	5.18800	-638.38782	1099.15088	381.98404	-832.72095	1042.12134	478.49786	-710.28931	721.91089	505.74738	-713.99585	679.04980	498.46732	-771.01135	725.04633	506.37552	-768.68445	681.05011	497.71204	-694.90814	512.22668	463.26651	-694.14691	518.30798	340.41180	-601.04938	289.32062	451.52777	-597.54376	246.59250	445.60684	-661.91602	276.88763	454.05603	-648.57281	235.89758	446.57941	-593.96075	102.78338	419.19034	-607.80225	114.31271	332.93851	-514.63928	68.54790	374.25955	-704.72113	43.41289	439.69437	-763.11072	60.86921	372.99619	-744.91949	43.60355	324.06329	-642.24689	1091.94775	308.45456	-814.29651	1054.02368	212.88123	-845.00726	764.21674	148.84773	-862.18372	721.25189	154.66162	-901.36127	782.40961	159.29375	-912.50336	736.43475	160.94218	-950.46887	519.77502	178.99338	-940.64746	531.58783	304.55585	-862.98267	327.37833	177.59448	-867.68890	282.77808	189.01859	-925.71686	324.79623	182.43567	-919.55658	279.18112	193.25711	-859.06726	112.20109	223.02486	-900.09808	126.10608	307.32657	-798.54016	73.34220	280.28372	-1032.75000	58.54190	281.58868	-1039.70886	86.26414	237.01445	-977.95361	53.15166	177.63788
1299	5.19200	-644.89191	1098.19031	381.66019	-839.24164	1041.31555	478.72989	-713.89111	722.06903	505.77158	-717.30219	679.11890	498.37604	-774.60474	724.65137	506.35025	-771.91150	680.69592	497.64304	-696.60272	512.47040	463.36407	-695.80151	518.55145	340.50482	-601.85876	289.89441	451.61389	-598.17914	247.17142	445.75412	-662.72858	277.28317	454.31976	-649.18390	236.24663	446.70627	-594.19110	103.23682	419.27017	-608.04633	114.66666	333.02768	-514.80817	69.01525	374.36139	-704.75934	43.33449	439.71982	-763.56677	60.65858	373.12094	-745.03101	43.57765	324.14603	-648.95294	1090.91858	308.04175	-821.04041	1053.08362	213.09056	-852.99414	763.73248	149.19292	-870.71710	720.69708	155.22763	-909.25037	782.29144	160.85701	-920.41699	736.27844	161.53070	-959.79144	520.07788	179.72354	-949.25311	531.42126	305.42276	-877.48541	325.35428	178.03003	-883.55109	280.86841	189.41052	-940.29022	324.48715	182.79378	-935.23499	278.76602	193.47961	-879.44342	109.97747	223.62749	-920.16742	124.98782	307.57886	-819.88916	70.01139	280.68143	-1054.42688	60.23846	281.52731	-1060.62354	88.00572	236.99648	-999.68713	53.55423	177.82228
1300	5.19600	-651.55414	1097.08936	381.24911	-845.81549	1040.27185	478.97403	-717.74365	721.97162	505.80927	-720.75732	679.07428	498.23596	-778.41144	724.18970	506.30658	-775.25702	680.26978	497.52850	-698.18774	512.78687	463.52094	-697.46930	518.76917	340.63000	-602.72095	290.37103	451.71390	-598.88153	247.73186	445.87201	-663.44568	277.68787	454.51498	-649.96844	236.65054	446.92633	-594.47906	103.54714	419.32837	-608.28082	114.99853	333.11475	-514.99335	69.49289	374.41483	-704.58557	43.32662	439.87198	-763.69562	60.45581	373.18622	-745.12323	43.48993	324.20358	-655.56989	1089.70215	307.70959	-827.95746	1052.20422	213.15752	-860.84180	763.21045	149.58199	-878.39288	720.32751	155.49533	-916.87500	782.00360	161.49843	-928.28735	735.99738	162.12129	-968.65912	520.64783	180.15756	-957.71637	531.14905	306.25781	-891.99591	323.43472	178.51038	-899.09839	279.07529	189.92329	-954.71216	324.25781	183.23412	-951.68591	277.67380	194.25755	-900.22705	107.94314	223.43874	-939.98157	124.06990	307.88071	-841.37689	66.99834	281.18948	-1075.93420	62.04683	281.50058	-1081.52026	89.91113	236.97610	-1021.09741	54.34285	177.86784
1301	5.20000	-658.24615	1095.94067	380.93082	-852.30603	1039.28137	479.23093	-721.30042	722.27502	505.64816	-723.91663	679.08228	498.13443	-782.00836	723.75403	506.21848	-778.58667	679.88074	497.47714	-700.08850	513.09204	463.58014	-699.30945	518.94574	340.82782	-604.37305	290.64893	451.53772	-599.63531	248.34726	445.97461	-664.22900	278.01794	454.73886	-650.60083	237.02434	447.19006	-594.77869	103.95999	419.40753	-608.57458	115.40050	333.20981	-515.19855	70.02718	374.42526	-704.63416	43.26222	439.90616	-763.84918	60.27415	373.22690	-745.18158	43.44189	324.29037	-661.95343	1088.84106	307.65479	-834.81012	1051.19592	213.29002	-868.41840	762.66711	149.92371	-886.29785	719.80017	155.89323	-924.51379	781.57227	162.18173	-936.09241	735.64594	162.67133	-978.05621	520.40076	181.35614	-966.15845	530.74487	307.07819	-906.41956	321.56052	178.98773	-913.41986	277.76413	191.63760	-969.16608	324.11200	183.59068	-967.33313	277.43781	194.63232	-920.68994	106.63851	224.11449	-960.29364	123.49813	308.31778	-862.69641	64.35925	281.61337	-1097.32349	64.11330	281.34827	-1102.29834	91.98936	236.97552	-1042.44409	55.21801	177.90388
1302	5.20400	-664.81421	1094.80237	380.56888	-858.84650	1038.31958	479.36612	-725.30969	722.03265	505.64969	-727.39185	678.90778	497.94687	-785.94946	723.30151	506.03479	-781.97333	679.47662	497.46097	-701.90283	513.28265	463.73795	-701.75067	518.82312	340.32306	-604.44946	291.62222	452.02692	-600.69183	248.95044	445.58389	-666.60919	280.11652	454.81070	-651.25208	237.45932	447.34909	-595.08649	104.46075	419.42773	-608.91016	115.84672	333.32291	-515.41296	70.54163	374.47037	-704.67529	43.21005	439.94568	-763.98480	60.12343	373.25848	-745.31915	43.40963	324.36862	-668.47266	1087.69055	307.38385	-841.67206	1050.14355	213.41386	-876.36133	761.65686	149.96118	-894.00415	719.15906	156.31935	-932.09741	781.05042	162.83516	-943.76349	735.18945	163.26450	-987.01477	520.48907	182.14551	-974.58856	530.13434	307.85629	-920.64282	319.84024	179.54350	-928.96576	276.22888	192.13795	-983.31390	324.10321	184.01956	-983.92529	277.06824	195.49661	-940.90295	105.47615	224.35759	-980.33917	122.96065	308.57117	-884.01117	61.88053	282.25894	-1118.63184	66.27129	281.28735	-1123.05115	94.29062	236.91180	-1063.77075	56.38051	177.95511
1303	5.20800	-671.55133	1093.49316	380.16968	-865.44824	1037.23193	479.47928	-728.85144	722.29138	505.39261	-730.74060	678.76172	497.81656	-789.66443	722.83856	505.80521	-785.42566	679.01300	497.39529	-703.81464	513.53693	463.84070	-703.78412	518.85138	340.31659	-605.48389	292.14240	452.03903	-601.64526	249.54018	445.71127	-666.08893	278.67380	455.08548	-652.07806	237.91919	447.58569	-595.35602	104.91190	419.46317	-609.21735	116.22880	333.45337	-515.66028	71.08681	374.50970	-704.72217	43.14119	440.01376	-764.13428	59.95417	373.31561	-745.39978	43.35693	324.44943	-674.99750	1086.38342	307.13589	-848.75439	1049.00134	213.45639	-883.92480	760.88318	150.45497	-901.69128	718.44214	156.79008	-939.67688	780.43140	163.56505	-951.38617	734.60199	163.91133	-995.94336	520.45361	182.99626	-982.76453	529.54535	308.69983	-934.87561	318.17603	180.17543	-943.82629	274.76541	192.40472	-997.44202	323.91815	184.46249	-998.10651	277.36530	195.37747	-961.18866	104.22731	224.56064	-1000.34113	122.78404	308.51245	-905.81281	59.40696	282.05811	-1139.86768	68.62150	281.15906	-1143.63635	96.67541	236.87720	-1084.91516	57.73595	177.96458
1304	5.21200	-678.27527	1092.13318	379.74228	-871.79584	1036.00378	479.75198	-732.86780	722.09857	505.44205	-735.36340	678.69861	497.02527	-793.59442	722.30231	505.84985	-788.79419	678.56677	497.43146	-705.79852	513.63684	464.02753	-706.00415	519.08228	340.58154	-607.60840	292.23416	451.73019	-602.57257	250.11777	445.81210	-667.04010	279.06189	455.36206	-652.75562	238.28899	447.71756	-595.56055	105.36958	419.50436	-609.55957	116.63362	333.63388	-515.73492	71.71867	374.59445	-704.76154	43.09781	440.05441	-764.25739	59.80788	373.33658	-745.52887	43.37190	324.49518	-681.75507	1085.02344	306.75964	-855.91626	1047.95312	213.50754	-891.43280	760.07495	150.92429	-909.28601	717.60968	157.30647	-947.14685	779.69385	164.24799	-958.95795	733.89478	164.55348	-1004.61639	520.32373	183.77193	-991.05731	528.83630	309.51538	-948.96765	316.61942	180.92363	-959.07532	273.51468	193.00134	-1011.42102	324.01291	184.87141	-1014.14917	277.27356	196.22243	-981.45831	103.45161	224.92889	-1020.41138	122.69499	308.73169	-927.15582	57.68011	282.60611	-1161.02527	71.09829	281.00085	-1164.13025	99.32451	236.70547	-1105.99915	59.30537	178.00357
